<?xml version="1.0" encoding="UTF-8"?>
<svg width="40px" height="50px" viewBox="0 0 40 50" version="1.1" xmlns="http://www.w3.org/2000/svg">
    <g stroke="none" stroke-width="1" fill="none" fill-rule="evenodd">
        <!-- Marker shape -->
        <path d="M20,0 C31.0457,0 40,8.9543 40,20 C40,31.0457 20,50 20,50 C20,50 0,31.0457 0,20 C0,8.9543 8.9543,0 20,0 Z" fill="#FFEB3B" />
        
        <!-- Lemonade stand icon -->
        <g transform="translate(8, 8)">
            <!-- Stand roof -->
            <path d="M2,10 L22,10 L24,6 L0,6 L2,10 Z" fill="#F48FB1" />
            
            <!-- Stand base -->
            <rect x="4" y="10" width="16" height="12" fill="#BBDEFB" />
            
            <!-- Lemonade pitcher -->
            <rect x="8" y="12" width="8" height="6" fill="#FFFFFF" />
            <path d="M8,12 L16,12 L15,14 L9,14 L8,12 Z" fill="#FFEB3B" />
            
            <!-- Lemons -->
            <circle cx="6" cy="16" r="1.5" fill="#FFEB3B" />
            <circle cx="18" cy="16" r="1.5" fill="#FFEB3B" />
        </g>
        
        <!-- White border -->
        <path d="M20,2 C30.0457,2 38,9.9543 38,20 C38,28.0457 20,46 20,46 C20,46 2,28.0457 2,20 C2,9.9543 9.9543,2 20,2 Z" stroke="#FFFFFF" stroke-width="2" />
    </g>
</svg>