<?xml version="1.0" encoding="UTF-8"?>
<svg width="40px" height="48px" viewBox="0 0 40 48" version="1.1" xmlns="http://www.w3.org/2000/svg">
  <g stroke="none" stroke-width="1" fill="none" fill-rule="evenodd">
    <g id="lemonade-marker">
      <!-- Marker base -->
      <path d="M20,0 C31.0457,0 40,8.9543 40,20 C40,28.2843 34.2843,35.2843 26.5,37.8885 L20,48 L13.5,37.8885 C5.71573,35.2843 0,28.2843 0,20 C0,8.9543 8.9543,0 20,0 Z" fill="#FFEB3B" />
      
      <!-- Lemonade glass -->
      <path d="M26,12 L14,12 L16,28 L24,28 L26,12 Z" fill="#FFFFFF" fill-opacity="0.8" />
      <path d="M25,14 L15,14 L16.5,26 L23.5,26 L25,14 Z" fill="#FFC107" fill-opacity="0.6" />
      
      <!-- Straw -->
      <path d="M22,10 L22,26 L24,26 L24,10 Z" fill="#F44336" fill-opacity="0.8" />
      
      <!-- Ice cubes -->
      <rect x="18" y="16" width="3" height="3" fill="#BBDEFB" fill-opacity="0.8" />
      <rect x="20" y="20" width="3" height="3" fill="#BBDEFB" fill-opacity="0.8" />
    </g>
  </g>
</svg>